<?xml version="1.0" encoding="UTF-8"?>
<svg version="1.1" xmlns="http://www.w3.org/2000/svg" width="625" height="167">
<path d="M0 0 C0.88034912 0.00563965 1.76069824 0.0112793 2.66772461 0.01708984 C15.54059599 0.25606788 27.28036233 3.81984569 37.25 12.3125 C37.25 12.9725 37.25 13.6325 37.25 14.3125 C37.99765625 13.96316406 38.7453125 13.61382812 39.515625 13.25390625 C40.50046875 12.79886719 41.4853125 12.34382813 42.5 11.875 C43.47453125 11.42253906 44.4490625 10.97007813 45.453125 10.50390625 C50.73768086 8.25280354 55.39088691 8.12960732 61.0625 8.125 C62.23522461 8.10663086 62.23522461 8.10663086 63.43164062 8.08789062 C68.42567822 8.07537424 72.51554074 8.71327678 77.25 10.3125 C77.44335938 9.67441406 77.63671875 9.03632812 77.8359375 8.37890625 C78.09632813 7.55261719 78.35671875 6.72632813 78.625 5.875 C78.88023437 5.05128906 79.13546875 4.22757813 79.3984375 3.37890625 C80.25 1.3125 80.25 1.3125 82.25 0.3125 C84.82919148 0.17729293 87.38014856 0.09988701 89.9609375 0.07421875 C90.72548248 0.066147 91.49002747 0.05807526 92.27774048 0.04975891 C93.89672581 0.03592187 95.51574026 0.02519801 97.13476562 0.01733398 C99.60863566 0.00011391 102.08117146 -0.04377351 104.5546875 -0.08789062 C106.12759434 -0.09801715 107.70051254 -0.10653338 109.2734375 -0.11328125 C110.01210052 -0.13078934 110.75076355 -0.14829742 111.5118103 -0.16633606 C115.01848757 -0.15155294 116.89261226 0.0375618 119.71044922 2.20532227 C122.14534203 5.53795149 121.97904762 8.24821434 122.25 12.3125 C122.65992188 11.61382812 123.06984375 10.91515625 123.4921875 10.1953125 C124.03101563 9.28523438 124.56984375 8.37515625 125.125 7.4375 C125.65867188 6.53257813 126.19234375 5.62765625 126.7421875 4.6953125 C128.25 2.3125 128.25 2.3125 130.25 0.3125 C133.21614543 0.08782062 136.08608222 -0.01568346 139.0546875 -0.0234375 C140.36797531 -0.0334227 140.36797531 -0.0334227 141.70779419 -0.04360962 C143.56217342 -0.05374532 145.41658919 -0.05842636 147.27099609 -0.05810547 C150.10705866 -0.06247237 152.94155739 -0.09876367 155.77734375 -0.13671875 C157.57811967 -0.14258799 159.378903 -0.14655667 161.1796875 -0.1484375 C162.02771942 -0.16280853 162.87575134 -0.17717957 163.7494812 -0.19198608 C167.50716062 -0.16286787 169.64726027 -0.06660482 172.87939453 1.96630859 C174.25 4.3125 174.25 4.3125 174.20947266 7.20825195 C173.16974436 10.5721566 171.82845923 13.03832579 169.8984375 15.98046875 C169.21136719 17.03943359 168.52429688 18.09839844 167.81640625 19.18945312 C167.09324219 20.28193359 166.37007812 21.37441406 165.625 22.5 C164.21606683 24.66010472 162.80721208 26.8202606 161.3984375 28.98046875 C159.33305383 32.14632524 157.2582512 35.30038925 155.12988281 38.42431641 C154.48116211 39.3941748 153.83244141 40.3640332 153.1640625 41.36328125 C152.57834473 42.22219971 151.99262695 43.08111816 151.38916016 43.96606445 C150.08723771 46.16494509 150.08723771 46.16494509 150.35400391 48.22070312 C151.61673679 51.16868551 153.11079536 53.92827121 154.671875 56.73046875 C155.0137384 57.3471492 155.35560181 57.96382965 155.70782471 58.59919739 C156.80088361 60.56857728 157.90031533 62.53431366 159 64.5 C159.72438382 65.80249783 160.44834634 67.10523006 161.171875 68.40820312 C162.56319586 70.91208053 163.95696123 73.41456522 165.35351562 75.91552734 C167.65860123 80.04438434 169.95512569 84.17796186 172.25 88.3125 C172.28738281 87.07113281 172.32476562 85.82976562 172.36328125 84.55078125 C172.4289595 82.90882489 172.4954062 81.26689913 172.5625 79.625 C172.59633789 78.40006836 172.59633789 78.40006836 172.63085938 77.15039062 C172.84050653 72.44285896 173.1998104 69.13088549 176.25 65.3125 C180.6884997 63.09325015 186.68865203 64.03774276 191.5625 64 C192.79935547 63.97099609 194.03621094 63.94199219 195.31054688 63.91210938 C196.50357422 63.90373047 197.69660156 63.89535156 198.92578125 63.88671875 C200.5641394 63.86484497 200.5641394 63.86484497 202.2355957 63.8425293 C205.90615187 64.41479953 207.57446285 65.80393176 210.25 68.3125 C210.683125 67.6525 211.11625 66.9925 211.5625 66.3125 C215.78200303 63.17240472 220.16355557 63.65788363 225.25 64.3125 C228.4375 65.8125 228.4375 65.8125 230.25 67.3125 C230.75595703 66.82499268 231.26191406 66.33748535 231.78320312 65.83520508 C235.07126059 63.80555203 237.97359748 63.89913185 241.71875 63.94921875 C242.7947345 63.94847099 242.7947345 63.94847099 243.89245605 63.94770813 C245.40538307 63.95004315 246.91831438 63.95973799 248.43115234 63.97631836 C250.74221667 63.99992051 253.0521269 63.99687421 255.36328125 63.99023438 C256.83594435 63.99581143 258.30860261 64.00292149 259.78125 64.01171875 C260.46989136 64.01080734 261.15853271 64.00989594 261.86804199 64.00895691 C265.49034745 64.06228411 268.16592269 64.33878874 271.25 66.3125 C272.735 65.3225 272.735 65.3225 274.25 64.3125 C278.35894616 63.81997589 282.48971947 63.89595581 286.625 63.875 C287.76195312 63.84212891 288.89890625 63.80925781 290.0703125 63.77539062 C298.35264748 63.72192485 298.35264748 63.72192485 302.30078125 66.3203125 C304.67185252 69.96007321 306.43552852 73.60605721 308.0625 77.625 C308.37380859 78.36556641 308.68511719 79.10613281 309.00585938 79.86914062 C309.76485068 81.67904296 310.508973 83.49516865 311.25 85.3125 C314.04361946 79.82872847 316.5973262 74.29813865 319.00390625 68.6328125 C320.25 66.3125 320.25 66.3125 323.25 64.3125 C327.50602821 63.6866135 332.29810004 63.11805375 336.08203125 65.43359375 C337.4375 66.8125 337.4375 66.8125 339.25 69.3125 C339.848125 68.4875 340.44625 67.6625 341.0625 66.8125 C343.76834713 64.0756403 345.96732866 63.92094338 349.75 63.875 C353.69288211 63.96914185 356.65486136 64.69077985 360.25 66.3125 C360.91 65.6525 361.57 64.9925 362.25 64.3125 C364.7109375 64.01171875 364.7109375 64.01171875 367.625 64 C368.58148438 63.98324219 369.53796875 63.96648437 370.5234375 63.94921875 C373.6657138 64.3678888 374.99614832 65.1152519 377.25 67.3125 C377.58 68.3025 377.91 69.2925 378.25 70.3125 C378.848125 69.3225 379.44625 68.3325 380.0625 67.3125 C381.9467911 65.03407351 382.92244025 64.38027098 385.85546875 63.7734375 C390.54727601 63.63413958 393.40460988 63.78205914 397.4375 66.3125 C398.035625 66.9725 398.63375 67.6325 399.25 68.3125 C399.683125 67.6525 400.11625 66.9925 400.5625 66.3125 C404.74823859 63.19753175 409.19471828 63.84170277 414.25 64.3125 C415.24 64.6425 416.23 64.9725 417.25 65.3125 C417.58 64.9825 417.91 64.6525 418.25 64.3125 C420.35131921 64.18647946 422.45743788 64.1367078 424.5625 64.125 C425.71363281 64.11082031 426.86476563 64.09664062 428.05078125 64.08203125 C431.07412237 64.29982994 432.71565871 64.7293189 435.25 66.3125 C435.91 65.6525 436.57 64.9925 437.25 64.3125 C439.13400269 64.05180359 439.13400269 64.05180359 441.45263672 64.0378418 C442.7544136 64.02354378 442.7544136 64.02354378 444.08248901 64.00895691 C445.02206451 64.00986832 445.96164001 64.01077972 446.9296875 64.01171875 C447.89399689 64.00743362 448.85830627 64.0031485 449.85183716 63.99873352 C451.8945436 63.99298334 453.93727052 63.992495 455.97998047 63.99682617 C459.10549956 63.99998032 462.23006719 63.9765556 465.35546875 63.95117188 C467.33854047 63.94889838 469.32161474 63.94819562 471.3046875 63.94921875 C472.70797806 63.93540413 472.70797806 63.93540413 474.13961792 63.92131042 C480.6564506 63.96774608 480.6564506 63.96774608 483.87158203 65.83520508 C484.32645996 66.3227124 484.78133789 66.81021973 485.25 67.3125 C486.075 66.838125 486.9 66.36375 487.75 65.875 C494.67670567 62.78272068 499.34699595 62.90145068 506.26953125 65.5234375 C507.24986328 65.91402344 507.24986328 65.91402344 508.25 66.3125 C509.24 66.6425 510.23 66.9725 511.25 67.3125 C511.95125 66.85875 512.6525 66.405 513.375 65.9375 C517.95605715 63.34820683 522.48048161 62.76848746 527.65625 63.78515625 C532.1779462 65.16427359 535.95543876 66.81202868 539.25 70.3125 C540.47074145 73.48642778 540.46870216 74.77217702 539.1875 77.9375 C538.878125 78.72125 538.56875 79.505 538.25 80.3125 C538.91 81.3025 539.57 82.2925 540.25 83.3125 C540.55078125 86.0546875 540.55078125 86.0546875 540.5625 89.1875 C540.57925781 90.21617188 540.59601562 91.24484375 540.61328125 92.3046875 C540.071723 96.7885569 538.54662052 99.23628152 535.08984375 102.10546875 C531.24545721 103.73946523 527.94383408 103.71473358 523.8125 103.625 C523.07451172 103.62822266 522.33652344 103.63144531 521.57617188 103.63476562 C518.00333108 103.59983118 515.37984975 103.35773898 511.96484375 102.16796875 C509.35298939 101.01168466 509.35298939 101.01168466 507.37109375 102.171875 C506.32115234 102.73648438 506.32115234 102.73648438 505.25 103.3125 C502.55980915 103.50485855 499.99845545 103.59188146 497.3125 103.5625 C496.25772461 103.57410156 496.25772461 103.57410156 495.18164062 103.5859375 C491.09601282 103.57062118 487.92358827 103.12413257 484.25 101.3125 C483.59 101.9725 482.93 102.6325 482.25 103.3125 C479.28125 103.578125 479.28125 103.578125 475.75 103.5625 C474.5846875 103.56765625 473.419375 103.5728125 472.21875 103.578125 C469.25 103.3125 469.25 103.3125 467.25 101.3125 C465.765 102.3025 465.765 102.3025 464.25 103.3125 C461.47265625 103.6484375 461.47265625 103.6484375 458.3125 103.6875 C457.27222656 103.71585937 456.23195313 103.74421875 455.16015625 103.7734375 C452.25 103.3125 452.25 103.3125 449.91796875 101.7734375 C447.67734394 98.46759761 447.58048732 95.43320829 447.5 91.5625 C447.45552734 90.51642578 447.45552734 90.51642578 447.41015625 89.44921875 C447.33981542 87.73759187 447.29260054 86.02504185 447.25 84.3125 C444.68695692 88.15706462 444.92614653 90.99966453 444.7890625 95.5234375 C444.05614667 99.31548028 443.14592511 100.7099626 440.25 103.3125 C436.73144184 104.04539205 433.26536067 103.94119337 429.68359375 103.87109375 C428.65315445 103.86876236 427.62271515 103.86643097 426.56105042 103.86402893 C424.38477286 103.85429285 422.20852061 103.83250908 420.0324707 103.79956055 C416.696397 103.75013182 413.36179751 103.73807889 410.02539062 103.73242188 C407.9114426 103.7183367 405.79750741 103.70213259 403.68359375 103.68359375 C402.6835582 103.67823105 401.68352264 103.67286835 400.65318298 103.66734314 C399.725345 103.65135574 398.79750702 103.63536835 397.84155273 103.61889648 C397.02532944 103.60825668 396.20910614 103.59761688 395.3681488 103.58665466 C393.25 103.3125 393.25 103.3125 390.25 101.3125 C387.46144878 101.70821756 387.46144878 101.70821756 385.25 103.3125 C381.29816132 103.56549591 377.33397741 103.49772734 373.375 103.5 C372.25996094 103.51224609 371.14492188 103.52449219 369.99609375 103.53710938 C368.39314453 103.54000977 368.39314453 103.54000977 366.7578125 103.54296875 C365.77441895 103.54707764 364.79102539 103.55118652 363.77783203 103.55541992 C361.25 103.3125 361.25 103.3125 358.25 101.3125 C357.59 101.9725 356.93 102.6325 356.25 103.3125 C353.8515625 103.57128906 353.8515625 103.57128906 350.875 103.578125 C349.80765625 103.58070313 348.7403125 103.58328125 347.640625 103.5859375 C346.52171875 103.57820313 345.4028125 103.57046875 344.25 103.5625 C343.13109375 103.57023437 342.0121875 103.57796875 340.859375 103.5859375 C339.79203125 103.58335937 338.7246875 103.58078125 337.625 103.578125 C336.64273437 103.57586914 335.66046875 103.57361328 334.6484375 103.57128906 C332.25 103.3125 332.25 103.3125 330.25 101.3125 C327.46762345 101.71778901 327.46762345 101.71778901 325.25 103.3125 C320.7975841 103.56669185 316.33380869 103.49772973 311.875 103.5 C309.9878125 103.51836914 309.9878125 103.51836914 308.0625 103.53710938 C306.85851562 103.53904297 305.65453125 103.54097656 304.4140625 103.54296875 C303.30498535 103.54707764 302.1959082 103.55118652 301.05322266 103.55541992 C298.25 103.3125 298.25 103.3125 295.25 101.3125 C292.46144878 101.70821756 292.46144878 101.70821756 290.25 103.3125 C288.21060536 103.41715324 286.16755534 103.45106039 284.12548828 103.45776367 C282.81387726 103.46414352 281.50226624 103.47052338 280.15090942 103.47709656 C278.70737749 103.47862527 277.26384506 103.47973921 275.8203125 103.48046875 C274.34919196 103.48367991 272.87807175 103.48704387 271.4069519 103.49055481 C268.3183315 103.49655316 265.2297391 103.49839403 262.14111328 103.49780273 C258.18086024 103.49770117 254.22078674 103.5113438 250.26057625 103.52857494 C247.22027764 103.53968822 244.1800225 103.54172214 241.13970566 103.54119301 C239.67964943 103.54237451 238.21959212 103.54680581 236.75955582 103.55452538 C234.71749422 103.56430938 232.67538025 103.56018709 230.63330078 103.55541992 C229.47049591 103.55684494 228.30769104 103.55826996 227.10964966 103.55973816 C224.25 103.3125 224.25 103.3125 221.25 101.3125 C218.46144878 101.70821756 218.46144878 101.70821756 216.25 103.3125 C213.41240162 103.40124055 210.59927158 103.42768795 207.76171875 103.41015625 C206.47960258 103.40803383 206.47960258 103.40803383 205.17158508 103.40586853 C202.42685509 103.40025296 199.68220544 103.3877103 196.9375 103.375 C195.0970064 103.36998591 193.2565115 103.36542285 191.41601562 103.36132812 C187.34561369 103.3514804 183.27525338 103.33725894 179.20487976 103.31922913 C175.11862659 103.30516334 171.03848756 103.35485931 166.95324707 103.44075012 C163.47080393 103.50737304 159.98822088 103.54815478 156.50537109 103.5871582 C154.66831231 103.61238806 152.83135468 103.64657018 150.99462891 103.68969727 C148.33992059 103.75034505 145.68652432 103.77869379 143.03125 103.80078125 C142.21136597 103.82658768 141.39148193 103.8523941 140.54675293 103.87898254 C134.84538194 103.8817876 134.84538194 103.8817876 131.82128906 100.99023438 C129.98141167 97.85478141 128.19083749 94.71909445 126.5 91.5 C125.57960937 89.75783203 125.57960937 89.75783203 124.640625 87.98046875 C124.18171875 87.10003906 123.7228125 86.21960938 123.25 85.3125 C122.92 85.3125 122.59 85.3125 122.25 85.3125 C122.21261719 86.27671875 122.17523438 87.2409375 122.13671875 88.234375 C122.03810547 90.12929687 122.03810547 90.12929687 121.9375 92.0625 C121.87949219 93.31546875 121.82148438 94.5684375 121.76171875 95.859375 C121.21334684 99.5598389 120.96804667 100.8135258 118.25 103.3125 C115.42971653 103.69336076 113.00488241 103.82653318 110.1875 103.7734375 C109.39980225 103.77252106 108.61210449 103.77160461 107.80053711 103.7706604 C106.13616912 103.76462202 104.47181213 103.74886868 102.80761719 103.72412109 C100.25935853 103.687634 97.71255498 103.68310157 95.1640625 103.68359375 C93.54686243 103.67376159 91.92967221 103.66210415 90.3125 103.6484375 C89.16865845 103.64509903 89.16865845 103.64509903 88.00170898 103.64169312 C84.22886516 103.57396965 82.46488708 103.45575805 79.25 101.3125 C78.5625 98.6875 78.5625 98.6875 78.25 96.3125 C77.49976563 96.5290625 76.74953125 96.745625 75.9765625 96.96875 C64.53318945 100.08180866 52.95755294 100.95548604 42.07421875 95.15234375 C41.47222656 94.77207031 40.87023437 94.39179687 40.25 94 C39.26 93.443125 38.27 92.88625 37.25 92.3125 C35.27652402 92.99797543 35.27652402 92.99797543 33.25 94.3125 C18.2548594 103.03738732 2.58609225 106.19082867 -14.7109375 102.62109375 C-28.75277279 98.63534715 -40.81282859 89.88607006 -48.2421875 77.2734375 C-54.75885767 64.47645307 -56.02075509 50.06350245 -52.0625 36.25 C-47.05427053 22.31101167 -38.68617204 11.62340957 -25.16796875 5.05859375 C-16.79333257 1.57237808 -9.03605139 -0.06068537 0 0 Z M206.25 76.3125 C207.25 78.3125 207.25 78.3125 207.25 78.3125 Z M205.25 78.3125 C203.88823419 80.29325027 202.55406884 82.29329663 201.25 84.3125 C202.24 84.3125 203.23 84.3125 204.25 84.3125 C204.91 82.3325 205.57 80.3525 206.25 78.3125 C205.92 78.3125 205.59 78.3125 205.25 78.3125 Z M419.25 81.3125 C419.25 82.3025 419.25 83.2925 419.25 84.3125 C419.91 83.9825 420.57 83.6525 421.25 83.3125 C420.59 82.6525 419.93 81.9925 419.25 81.3125 Z M496.25 83.3125 C496.91 83.9725 497.57 84.6325 498.25 85.3125 C498.25 84.6525 498.25 83.9925 498.25 83.3125 C497.59 83.3125 496.93 83.3125 496.25 83.3125 Z " fill="#FCFBFA" transform="translate(70.75,31.6875)"/>
<path d="M0 0 C3.01553393 1.61839976 5.35500603 3.67984542 7.86328125 6 C8.25515625 5.236875 8.64703125 4.47375 9.05078125 3.6875 C11.11685175 0.62401615 12.48151729 -0.53969284 15.86328125 -2 C19.54389595 -2.39435158 22.07951867 -2.29163259 25.55078125 -1 C28.78697672 1.79887176 30.20871248 5.10852819 31.86328125 9 C32.0334375 8.37351562 32.20359375 7.74703125 32.37890625 7.1015625 C32.62125 6.28429688 32.86359375 5.46703125 33.11328125 4.625 C33.3453125 3.81289063 33.57734375 3.00078125 33.81640625 2.1640625 C34.86328125 0 34.86328125 0 36.7265625 -1.2734375 C41.11310119 -2.76502104 45.39646833 -2.60005983 49.61328125 -0.875 C50.35578125 -0.58625 51.09828125 -0.2975 51.86328125 0 C53.20574437 -0.64808564 54.53760926 -1.31822584 55.86328125 -2 C60.03004469 -2.33069551 62.81022992 -2.36627872 66.73828125 -1 C69.89756581 1.97344429 70.10080969 4.77174862 70.86328125 9 C71.20939453 8.18595703 71.20939453 8.18595703 71.5625 7.35546875 C73.08972839 4.00522465 74.33612953 1.46857931 77.11328125 -1 C80.97428293 -2.40400061 83.74734695 -2.32666145 87.86328125 -2 C89.19661458 -1.33333333 90.52994792 -0.66666667 91.86328125 0 C92.46914063 -0.30679688 93.075 -0.61359375 93.69921875 -0.9296875 C97.28943704 -2.70535503 100.93912411 -2.36852954 104.86328125 -2 C105.95640625 -1.62875 107.04953125 -1.2575 108.17578125 -0.875 C111.52291436 0.21476427 111.8603805 -0.48186684 114.86328125 -2 C119.65692255 -2.50594783 124.16602904 -1.96708134 128.86328125 -1 C129.85328125 -1.33 130.84328125 -1.66 131.86328125 -2 C137.30124049 -2.35083608 140.45532515 -2.54718987 144.86328125 1 C146.43780119 3.61227172 147.55549218 6.35586428 148.67578125 9.1875 C149.14274414 10.31188477 149.14274414 10.31188477 149.61914062 11.45898438 C150.3814126 13.30016438 151.12429882 15.14934948 151.86328125 17 C152.07082031 16.35933594 152.27835938 15.71867187 152.4921875 15.05859375 C155.02270649 7.95408228 158.26317327 2.23992186 165.25390625 -1.1640625 C171.40441487 -3.13443502 177.76743691 -2.90196282 183.55078125 0 C184.64390625 0.66 185.73703125 1.32 186.86328125 2 C186.86328125 2.66 186.86328125 3.32 186.86328125 4 C187.52328125 4 188.18328125 4 188.86328125 4 C188.94578125 3.38125 189.02828125 2.7625 189.11328125 2.125 C189.86328125 0 189.86328125 0 191.453125 -1.1171875 C194.76031551 -2.32857333 197.6602683 -2.26413272 201.17578125 -2.25 C203.08810547 -2.25773437 203.08810547 -2.25773437 205.0390625 -2.265625 C208.86328125 -2 208.86328125 -2 212.59375 -0.859375 C215.6814516 0.35326657 215.6814516 0.35326657 217.55981445 -0.93188477 C220.9542865 -2.50589804 224.31937029 -2.26542079 227.98828125 -2.23046875 C228.77219238 -2.23001053 229.55610352 -2.22955231 230.36376953 -2.2290802 C232.01791908 -2.22606491 233.67206598 -2.21820025 235.32617188 -2.20581055 C237.85426933 -2.18756504 240.38199983 -2.18530095 242.91015625 -2.18554688 C244.51953441 -2.18063071 246.12891009 -2.17480196 247.73828125 -2.16796875 C248.49254395 -2.16685593 249.24680664 -2.1657431 250.02392578 -2.16459656 C253.48013074 -2.13343188 256.52736792 -1.8480396 259.86328125 -1 C261.34828125 -1.495 261.34828125 -1.495 262.86328125 -2 C271.48828125 -2.41071429 271.48828125 -2.41071429 274.86328125 0 C276.2341504 1.29470975 277.57668962 2.62150897 278.86328125 4 C279.46140625 3.195625 280.05953125 2.39125 280.67578125 1.5625 C282.86328125 -1 282.86328125 -1 285.86328125 -2 C294.36968278 -2.40506674 294.36968278 -2.40506674 297.86328125 0 C298.91015625 2.1640625 298.91015625 2.1640625 299.61328125 4.625 C299.855625 5.44226562 300.09796875 6.25953125 300.34765625 7.1015625 C300.60289062 8.04128906 300.60289062 8.04128906 300.86328125 9 C301.09402344 8.45730469 301.32476563 7.91460937 301.5625 7.35546875 C303.10673063 3.96792726 304.33118312 1.46019298 307.17578125 -1 C311.64063196 -2.6613398 315.22667787 -2.7067151 319.61328125 -0.8125 C325.04337004 3.5617382 327.35020646 11.21277643 330.11328125 17.4375 C330.58507812 18.46166016 331.056875 19.48582031 331.54296875 20.54101562 C331.98382812 21.53681641 332.4246875 22.53261719 332.87890625 23.55859375 C333.48653809 24.90908813 333.48653809 24.90908813 334.10644531 26.28686523 C335.02495558 29.57957639 334.74387657 31.71796468 333.86328125 35 C330.87095955 37.8957952 328.00380281 38.24803095 323.98828125 38.4375 C318.91407587 38.30836603 315.98988557 36.87068127 311.86328125 34 C311.86328125 34.66 311.86328125 35.32 311.86328125 36 C308.64940935 37.89510701 306.25755789 38.25656113 302.546875 38.265625 C301.53560547 38.26820312 300.52433594 38.27078125 299.48242188 38.2734375 C298.43248047 38.26570313 297.38253906 38.25796875 296.30078125 38.25 C295.24697266 38.25773437 294.19316406 38.26546875 293.10742188 38.2734375 C292.09744141 38.27085938 291.08746094 38.26828125 290.046875 38.265625 C289.12447021 38.26336914 288.20206543 38.26111328 287.25170898 38.25878906 C284.86328125 38 284.86328125 38 281.86328125 36 C276.52859696 35.61535105 276.52859696 35.61535105 271.86328125 38 C269.5234375 38.23046875 269.5234375 38.23046875 266.92578125 38.1875 C266.07113281 38.18105469 265.21648437 38.17460938 264.3359375 38.16796875 C261.86328125 38 261.86328125 38 259.671875 37.42578125 C257.77750015 36.77610852 257.77750015 36.77610852 255.86328125 38 C251.22809864 38.56549228 247.26388326 38.67674909 243.30078125 36 C242.09421875 35.01 242.09421875 35.01 240.86328125 34 C240.24453125 34.66 239.62578125 35.32 238.98828125 36 C234.73338342 38.72313461 230.80895226 38.8926333 225.86328125 38 C223.02391579 36.46843334 222.06394194 35.60103557 221.03515625 32.51953125 C220.8959375 31.62621094 220.75671875 30.73289063 220.61328125 29.8125 C220.38898438 28.46091797 220.38898438 28.46091797 220.16015625 27.08203125 C220.0621875 26.39496094 219.96421875 25.70789063 219.86328125 25 C219.404375 25.34933594 218.94546875 25.69867188 218.47265625 26.05859375 C217.55226563 26.74115234 217.55226563 26.74115234 216.61328125 27.4375 C216.01 27.88996094 215.40671875 28.34242187 214.78515625 28.80859375 C212.86328125 30 212.86328125 30 210.76171875 30.47265625 C207.55150486 31.36438233 206.55584523 34.29189764 204.86328125 37 C201.15340798 38.85493664 196.90188474 38.59596347 192.86328125 38 C190.570006 36.55214852 189.51890406 35.20749707 187.86328125 33 C187.07953125 33.61875 186.29578125 34.2375 185.48828125 34.875 C180.66259347 38.04292209 175.13625747 39.54376978 169.39453125 38.58984375 C164.83389929 37.198851 161.38172524 35.29144761 157.86328125 32 C156.93515625 33.2065625 156.93515625 33.2065625 155.98828125 34.4375 C153.86328125 37 153.86328125 37 151.86328125 38 C150.07575633 38.14754174 148.28165285 38.2211522 146.48828125 38.25 C145.53179687 38.27578125 144.5753125 38.3015625 143.58984375 38.328125 C140.48435978 37.95439914 139.15792059 37.06626291 136.86328125 35 C136.26515625 35.309375 135.66703125 35.61875 135.05078125 35.9375 C131.50802638 37.65826665 128.75653364 38.13658706 124.86328125 38.125 C123.56390625 38.12886719 123.56390625 38.12886719 122.23828125 38.1328125 C119.86328125 38 119.86328125 38 116.86328125 37 C115.87328125 37.495 115.87328125 37.495 114.86328125 38 C113.21971318 38.09585131 111.57213483 38.12983511 109.92578125 38.125 C109.05050781 38.12757812 108.17523438 38.13015625 107.2734375 38.1328125 C104.86328125 38 104.86328125 38 101.86328125 37 C100.87328125 37.495 100.87328125 37.495 99.86328125 38 C98.07575633 38.14754174 96.28165285 38.2211522 94.48828125 38.25 C93.53179687 38.27578125 92.5753125 38.3015625 91.58984375 38.328125 C88.48435978 37.95439914 87.15792059 37.06626291 84.86328125 35 C84.26515625 35.309375 83.66703125 35.61875 83.05078125 35.9375 C77.57957875 38.59494121 72.38791801 38.18385343 66.42578125 38.1875 C65.37583984 38.19974609 64.32589844 38.21199219 63.24414062 38.22460938 C61.72723633 38.22750977 61.72723633 38.22750977 60.1796875 38.23046875 C59.25615479 38.23457764 58.33262207 38.23868652 57.38110352 38.24291992 C54.75196412 37.9892601 53.12035457 37.33389035 50.86328125 36 C49.87328125 36.66 48.88328125 37.32 47.86328125 38 C45.47485352 38.25878906 45.47485352 38.25878906 42.6796875 38.265625 C41.1647168 38.26949219 41.1647168 38.26949219 39.61914062 38.2734375 C38.03842773 38.26183594 38.03842773 38.26183594 36.42578125 38.25 C34.85086914 38.26160156 34.85086914 38.26160156 33.24414062 38.2734375 C32.23287109 38.27085938 31.22160156 38.26828125 30.1796875 38.265625 C29.25615479 38.26336914 28.33262207 38.26111328 27.38110352 38.25878906 C24.76074093 37.98946061 23.11595289 37.32832109 20.86328125 36 C20.86328125 35.34 20.86328125 34.68 20.86328125 34 C19.91453125 34.66 18.96578125 35.32 17.98828125 36 C12.7963476 38.98641712 7.10078787 38.77374372 1.37890625 37.40625 C-1.5514643 36.93302246 -3.41038089 37.4172132 -6.26171875 38.1875 C-12.69838959 39.45572394 -17.47232258 38.23808634 -23.13671875 35 C-27.39667933 31.46423272 -30.02127951 27.46565226 -31.13671875 22 C-31.69914222 14.91346433 -30.56871493 9.98788102 -25.94921875 4.3125 C-17.85182953 -2.34535336 -9.8467764 -4.10446792 0 0 Z M-11.13671875 17 C-11.13671875 17.66 -11.13671875 18.32 -11.13671875 19 C-10.47671875 18.67 -9.81671875 18.34 -9.13671875 18 C-9.79671875 17.67 -10.45671875 17.34 -11.13671875 17 Z M172.86328125 17 C173.86328125 19 173.86328125 19 173.86328125 19 Z M152.86328125 20 C153.86328125 22 153.86328125 22 153.86328125 22 Z " fill="#F9FAFB" transform="translate(274.13671875,34)"/>
<path d="M0 0 C1.88089105 -0.01564648 1.88089105 -0.01564648 3.79977989 -0.03160906 C5.18865563 -0.0229611 6.57752905 -0.01393448 7.96640015 -0.00457001 C9.44383675 -0.00917875 10.92126876 -0.0155315 12.39869118 -0.02347898 C16.45962938 -0.04019929 20.52019227 -0.03191383 24.58113194 -0.01953411 C28.96021143 -0.01049693 33.33922564 -0.02444671 37.71829224 -0.0354538 C46.29728741 -0.05325787 54.87614275 -0.04939064 63.45514345 -0.03780323 C70.42629426 -0.02877661 77.39740582 -0.02754157 84.36856079 -0.0318985 C85.85574818 -0.0328179 85.85574818 -0.0328179 87.37297976 -0.03375587 C89.38698945 -0.03503475 91.40099912 -0.0363316 93.41500878 -0.03764623 C112.30875951 -0.04905756 131.20243266 -0.03592965 150.09617066 -0.01444477 C166.31450867 0.00342671 182.53273217 0.00032276 198.75106812 -0.01811981 C217.57633793 -0.03951676 236.40153972 -0.04795888 255.22681999 -0.03567076 C257.23349888 -0.03439654 259.24017778 -0.03313905 261.24685669 -0.0318985 C262.23422967 -0.0312814 263.22160264 -0.03066429 264.23889601 -0.03002849 C271.20319539 -0.02657206 278.16745168 -0.03241024 285.13174438 -0.04181671 C293.61673564 -0.05302501 302.10157884 -0.0500213 310.5865531 -0.02869374 C314.91731002 -0.01816754 319.24781993 -0.01408809 323.57857513 -0.02729034 C327.54118282 -0.03918777 331.50331395 -0.03269593 335.46587825 -0.01138014 C336.9012005 -0.00690276 338.3365628 -0.00920579 339.77185941 -0.01888329 C341.71968451 -0.0310116 343.66762201 -0.01620304 345.61541748 0 C346.69832754 0.00064941 347.7812376 0.00129882 348.89696312 0.00196791 C352.51441105 0.62509907 354.20152534 1.96831937 356.80770874 4.50336456 C357.43661499 6.50336456 357.43661499 6.50336456 357.37020874 8.50336456 C357.3714978 9.16336456 357.37278687 9.82336456 357.37411499 10.50336456 C356.54739691 13.42253461 355.14898637 14.60029567 352.80770874 16.50336456 C350.00833756 17.00706255 350.00833756 17.00706255 346.70723057 17.01231575 C345.44832746 17.02398014 344.18942435 17.03564452 342.89237267 17.04766238 C341.49269452 17.04039574 340.09301832 17.03274698 338.69334412 17.02475739 C337.2085194 17.03079656 335.72370089 17.03857359 334.23889345 17.04794252 C330.15291053 17.0685704 326.06727724 17.06412198 321.98126519 17.05558133 C317.57693354 17.05065908 313.17268743 17.06865981 308.76838684 17.08365631 C300.1377993 17.1091885 291.5073361 17.112733 282.87671716 17.10805579 C275.86358729 17.10449349 268.85049526 17.10797997 261.83736992 17.11650467 C260.34165321 17.11829024 260.34165321 17.11829024 258.81572 17.12011188 C256.79019479 17.12253531 254.76466958 17.12496358 252.73914438 17.12739663 C233.73285912 17.1491623 214.72664478 17.14481563 195.7203555 17.13262694 C178.32247554 17.12228653 160.92481947 17.14480216 143.52698381 17.18282337 C125.67374587 17.22154151 107.82061395 17.23809904 89.96733373 17.23057687 C79.93969097 17.22674697 69.9122388 17.23178472 59.8846302 17.26000595 C51.34833151 17.28378646 42.81234074 17.28669685 34.276038 17.26242562 C29.91884221 17.25061463 25.56221027 17.24853941 21.20505142 17.27243042 C17.21815897 17.29403757 13.23230483 17.2880775 9.24546211 17.25990705 C7.80135752 17.25458215 6.35717299 17.25944338 4.9131465 17.27537878 C-5.8235569 17.38566156 -5.8235569 17.38566156 -9.17146409 15.22757411 C-11.46224215 12.65503906 -12.18003772 10.80970306 -12.31729126 7.37836456 C-10.01984204 1.50710545 -6.00137868 0.00359896 0 0 Z " fill="#FEFEFE" transform="translate(254.19229125976563,75.49663543701172)"/>
<path d="M0 0 C10.23 0 20.46 0 31 0 C31.495 14.355 31.495 14.355 32 29 C34.97982391 23.57390829 34.97982391 23.57390829 37.95141602 18.14331055 C38.79629224 16.61384459 39.66658721 15.0983156 40.55297852 13.5925293 C42.0745352 10.9755063 42.0745352 10.9755063 43.28881836 7.96411133 C44.89980261 4.6272071 46.2044183 2.45053718 49 0 C54.86849472 -1.36351136 60.46146651 -1.04443346 66.4375 -0.6875 C68.04345243 -0.63226755 69.64958703 -0.58208696 71.25585938 -0.53710938 C75.17509814 -0.41640261 79.0855386 -0.22701273 83 0 C81.76904859 3.26429552 80.40172904 6.17434736 78.53125 9.1171875 C78.0468042 9.88200439 77.5623584 10.64682129 77.06323242 11.43481445 C76.54736572 12.24007568 76.03149902 13.04533691 75.5 13.875 C74.97188721 14.7105542 74.44377441 15.5461084 73.8996582 16.40698242 C71.32831044 20.45405351 68.71304543 24.45258563 65.94921875 28.37109375 C65.48257813 29.03963379 65.0159375 29.70817383 64.53515625 30.39697266 C63.65841719 31.64314922 62.76711444 32.87924774 61.859375 34.10302734 C60.00516283 36.74527969 59.01354645 38.57358141 58.91015625 41.828125 C60.47347115 46.37798772 62.79404418 50.31401039 65.25 54.4375 C66.3339434 56.29651942 67.41725247 58.15590882 68.5 60.015625 C69.06847656 60.98564453 69.63695312 61.95566406 70.22265625 62.95507812 C73.27076807 68.1770631 76.26299881 73.4303945 79.25 78.6875 C79.82266602 79.68515381 80.39533203 80.68280762 80.98535156 81.71069336 C81.5109668 82.63503174 82.03658203 83.55937012 82.578125 84.51171875 C83.04637695 85.33115967 83.51462891 86.15060059 83.99707031 86.99487305 C85 89 85 89 85 91 C74.44 91 63.88 91 53 91 C47.1875 80.1875 47.1875 80.1875 45.37182617 76.78979492 C44.89205322 75.90396729 44.41228027 75.01813965 43.91796875 74.10546875 C43.43094482 73.19949951 42.9439209 72.29353027 42.44213867 71.36010742 C41.13231923 69.21654477 39.86070319 67.66763412 38 66 C37.7525 66.721875 37.505 67.44375 37.25 68.1875 C36 71 36 71 33.96875 73.1875 C31.50867549 76.70189215 31.33868069 79.67029715 31.25 83.8125 C31.1675 86.184375 31.085 88.55625 31 91 C21.1 91 11.2 91 1 91 C1 85 1 85 2.50390625 83.41796875 C3.18324219 83.01191406 3.86257812 82.60585937 4.5625 82.1875 C13.88222418 75.81517976 18.19551465 66.62781161 21.61328125 56.11328125 C23.90509389 43.58933543 21.77957038 31.41123792 14.8125 20.75 C10.88591352 15.48905404 5.94903799 9.974519 0 7 C0 4.69 0 2.38 0 0 Z " fill="#07154D" transform="translate(155,38)"/>
<path d="M0 0 C0.79132324 -0.00555908 1.58264648 -0.01111816 2.39794922 -0.0168457 C10.30490395 0.079021 17.37346594 1.29776755 24.3125 5.25 C25.66988281 6.00603516 25.66988281 6.00603516 27.0546875 6.77734375 C29.16583372 8.13747566 30.76408712 9.45623074 32.4375 11.3125 C32.00179687 11.70179687 31.56609375 12.09109375 31.1171875 12.4921875 C24.66794633 18.55056556 19.71363906 25.66317158 17.4375 34.3125 C14.4375 33.3125 14.4375 33.3125 12.0625 30.875 C8.29339156 27.19563224 5.28870173 26.21157061 0.125 25.875 C-5.09382685 26.00547067 -8.66251331 27.92427627 -12.5625 31.3125 C-17.19129176 37.24684841 -18.17520029 41.99477768 -17.5625 49.3125 C-16.43345938 55.62062601 -14.24785384 59.29803251 -9.18359375 63.21875 C-4.68340346 66.25502297 0.17506554 65.96498514 5.4375 65.3125 C8.42768624 64.00733728 10.87212951 62.30913269 13.4375 60.3125 C14.4275 59.6525 15.4175 58.9925 16.4375 58.3125 C16.994375 59.446875 17.55125 60.58125 18.125 61.75 C21.94955841 69.34543881 25.66640308 76.00455686 31.4375 82.3125 C28.49045011 84.0880066 25.48911561 85.72367948 22.4375 87.3125 C21.31214844 87.91771484 21.31214844 87.91771484 20.1640625 88.53515625 C9.33173491 93.4254789 -5.95377185 93.12448312 -17.25 89.8125 C-29.58320654 84.76548176 -38.74573971 75.74551344 -44.51953125 63.90234375 C-49.05074305 52.65068299 -49.37682368 39.46339272 -44.95703125 28.09375 C-38.50048446 15.21682756 -28.61817009 6.49854504 -15.1875 1.5 C-10.15516051 0.10958909 -5.18661196 0.03061577 0 0 Z " fill="#07154D" transform="translate(70.5625,37.6875)"/>
<path d="M0 0 C6.04458647 3.62888026 10.60810039 7.64224163 13.21875 14.33203125 C9.58875 14.33203125 5.95875 14.33203125 2.21875 14.33203125 C2.87875 15.65203125 3.53875 16.97203125 4.21875 18.33203125 C3.55875 19.32203125 2.89875 20.31203125 2.21875 21.33203125 C1.55875 21.33203125 0.89875 21.33203125 0.21875 21.33203125 C-0.049375 21.97140625 -0.3175 22.61078125 -0.59375 23.26953125 C-1.78125 25.33203125 -1.78125 25.33203125 -4.78125 26.33203125 C-4.78125 26.99203125 -4.78125 27.65203125 -4.78125 28.33203125 C-5.44125 28.33203125 -6.10125 28.33203125 -6.78125 28.33203125 C-7.44125 29.65203125 -8.10125 30.97203125 -8.78125 32.33203125 C-12.85443959 31.81244442 -14.60487653 29.76091117 -17.34375 26.83203125 C-20.55397681 23.30980144 -20.55397681 23.30980144 -24.78125 21.33203125 C-25.049375 21.93015625 -25.3175 22.52828125 -25.59375 23.14453125 C-26.78042406 25.33050979 -27.87724113 26.74535719 -29.78125 28.33203125 C-30.44125 28.33203125 -31.10125 28.33203125 -31.78125 28.33203125 C-32.0184375 28.8940625 -32.255625 29.45609375 -32.5 30.03515625 C-34.07072697 32.85097167 -35.99596464 34.81158541 -38.28125 37.08203125 C-39.0753125 37.88125 -39.869375 38.68046875 -40.6875 39.50390625 C-42.78125 41.33203125 -42.78125 41.33203125 -44.78125 41.33203125 C-47.97420092 32.55141622 -48.11173422 23.26741899 -44.15625 14.7109375 C-35.01994907 -1.09590132 -17.03902045 -8.03673798 0 0 Z " fill="#FBAE08" transform="translate(146.78125,54.66796875)"/>
<path d="M0 0 C117.48 0 234.96 0 356 0 C356 1.32 356 2.64 356 4 C238.52 4 121.04 4 0 4 C0 2.68 0 1.36 0 0 Z " fill="#FAB21C" transform="translate(249,82)"/>
<path d="M0 0 C56.1 0 112.2 0 170 0 C167 4 167 4 164.02275562 4.49219131 C162.79400558 4.48850414 161.56525553 4.48481697 160.29927063 4.48101807 C159.27249585 4.48614462 159.27249585 4.48614462 158.22497815 4.49137473 C155.92601103 4.49797551 153.62820563 4.4759432 151.3293457 4.45410156 C149.6836042 4.45297355 148.03786069 4.45360604 146.39212036 4.45587158 C141.91912462 4.45702147 137.44655603 4.43346788 132.97365975 4.40557575 C128.30116189 4.38060778 123.62865474 4.37822374 118.95610046 4.37347412 C110.10565547 4.36103078 101.2554076 4.32819083 92.4050495 4.28807616 C82.33022967 4.24340067 72.25540054 4.22138205 62.18050635 4.20129442 C41.45356078 4.15945936 20.7267928 4.08908095 0 4 C0 2.68 0 1.36 0 0 Z " fill="#1D2354" transform="translate(249,82)"/>
<path d="M0 0 C2.64 0 5.28 0 8 0 C12 6.75 12 6.75 12 9 C12.66 9 13.32 9 14 9 C14.28875 8.071875 14.5775 7.14375 14.875 6.1875 C16 3 16 3 18 0 C20.98095703 -0.34057617 20.98095703 -0.34057617 24.7578125 -0.29296875 C25.42086395 -0.28872391 26.08391541 -0.28447906 26.76705933 -0.28010559 C28.88678441 -0.26329971 31.00556188 -0.22564701 33.125 -0.1875 C34.56118419 -0.17245549 35.99738328 -0.15876668 37.43359375 -0.14648438 C40.95603764 -0.1133909 44.47792636 -0.0615968 48 0 C48 2.31 48 4.62 48 7 C45.69 7 43.38 7 41 7 C41 13.6 41 20.2 41 27 C38.36 27 35.72 27 33 27 C33 20.4 33 13.8 33 7 C30.69 7 28.38 7 26 7 C25.67 6.01 25.34 5.02 25 4 C19.28112918 11.58534302 16.88342154 17.45722069 17 27 C14.36 27 11.72 27 9 27 C9.020625 26.35675781 9.04125 25.71351562 9.0625 25.05078125 C8.88183823 17.13553759 6.06874774 12.11634116 1.71484375 5.75 C0 3 0 3 0 0 Z " fill="#FAAD0B" transform="translate(492,102)"/>
<path d="M0 0 C5.41721142 2.55528841 7.62020601 5.69122878 10 11 C10.6913085 15.83915951 9.58865384 18.89385942 7 23 C2.34672675 27.19929538 -0.53067768 28.36033694 -6.6796875 28.28125 C-11.25413478 27.72677154 -13.92865841 25.21418714 -16.875 21.875 C-18.56484251 17.55651358 -18.65960983 13.5732948 -18 9 C-14.11199758 1.07999507 -8.4774236 -1.31804466 0 0 Z M-5 13 C-4 15 -4 15 -4 15 Z " fill="#0D184D" transform="translate(452,38)"/>
<path d="M0 0 C2.8160527 -0.20364017 5.22949527 -0.37669143 8 0 C10.09375 1.8984375 10.09375 1.8984375 11.5 4.375 C11.9846875 5.18710937 12.469375 5.99921875 12.96875 6.8359375 C14 9 14 9 14 11 C17.15739114 8.07648968 19.26354904 5.10613628 21.36328125 1.390625 C23 0 23 0 30 0 C30 8.91 30 17.82 30 27 C27.69 27 25.38 27 23 27 C22.67 23.04 22.34 19.08 22 15 C20.02 17.97 18.04 20.94 16 24 C12.99234114 21.15063897 10.72154788 18.76488042 9 15 C8.93941406 15.78246094 8.87882813 16.56492187 8.81640625 17.37109375 C8.73261719 18.38300781 8.64882813 19.39492188 8.5625 20.4375 C8.48128906 21.44683594 8.40007813 22.45617187 8.31640625 23.49609375 C8 26 8 26 7 27 C4 27.125 4 27.125 1 27 C0 26 0 26 -0.11352539 23.49975586 C-0.10828857 22.41573486 -0.10305176 21.33171387 -0.09765625 20.21484375 C-0.09443359 19.04501953 -0.09121094 17.87519531 -0.08789062 16.66992188 C-0.07951172 15.43822266 -0.07113281 14.20652344 -0.0625 12.9375 C-0.05798828 11.70193359 -0.05347656 10.46636719 -0.04882812 9.19335938 C-0.03699608 6.12885883 -0.02051173 3.06445279 0 0 Z " fill="#07144B" transform="translate(537,39)"/>
<path d="M0 0 C3.5578125 -0.0928125 3.5578125 -0.0928125 7.1875 -0.1875 C8.29387817 -0.22846802 8.29387817 -0.22846802 9.42260742 -0.27026367 C13.83935173 -0.32573392 16.52119467 0.27164994 20 3 C22.47342266 6.71013399 22.38503486 8.61060262 22 13 C21.03126968 14.35622245 20.03565785 15.69417053 19 17 C19.21345832 20.41533315 20.97121312 22.35375624 23 25 C23 25.66 23 26.32 23 27 C17.81092849 27.52770219 17.81092849 27.52770219 15 27 C12.89025682 25.21689219 11.6263437 23.27688118 10 21 C9.01 20.67 8.02 20.34 7 20 C7 22.31 7 24.62 7 27 C4.69 27 2.38 27 0 27 C0 18.09 0 9.18 0 0 Z " fill="#08144B" transform="translate(307,102)"/>
<path d="M0 0 C7 0 7 0 9.36328125 2.08203125 C10.00652344 2.98308594 10.64976562 3.88414063 11.3125 4.8125 C11.96863281 5.70582031 12.62476563 6.59914063 13.30078125 7.51953125 C14.54638819 9.33783104 15.77742381 11.16613571 17 13 C17.33 8.71 17.66 4.42 18 0 C20.31 0 22.62 0 25 0 C25 8.91 25 17.82 25 27 C18 27 18 27 15.63671875 24.91796875 C14.99347656 24.01691406 14.35023438 23.11585937 13.6875 22.1875 C13.03136719 21.29417969 12.37523437 20.40085937 11.69921875 19.48046875 C10.45361181 17.66216896 9.22257619 15.83386429 8 14 C7.67 18.29 7.34 22.58 7 27 C4.69 27 2.38 27 0 27 C0 18.09 0 9.18 0 0 Z " fill="#FAAC04" transform="translate(417,102)"/>
<path d="M0 0 C2.31 0 4.62 0 7 0 C7 3.63 7 7.26 7 11 C9.97 11 12.94 11 16 11 C16 7.7 16 4.4 16 1 C18.64 1 21.28 1 24 1 C24.02886537 5.31248609 24.04675255 9.62494762 24.0625 13.9375 C24.07087891 15.16919922 24.07925781 16.40089844 24.08789062 17.66992188 C24.09272461 19.4246582 24.09272461 19.4246582 24.09765625 21.21484375 C24.10551147 22.84087524 24.10551147 22.84087524 24.11352539 24.49975586 C24 27 24 27 23 28 C20 28.125 20 28.125 17 28 C16 27 16 27 15.90234375 24.93359375 C15.95117188 21.46679688 15.95117188 21.46679688 16 18 C13.03 18 10.06 18 7 18 C7 21.3 7 24.6 7 28 C4.69 28 2.38 28 0 28 C0 18.76 0 9.52 0 0 Z " fill="#0D1C53" transform="translate(314,38)"/>
<path d="M0 0 C2.64 0 5.28 0 8 0 C9.8392812 4.12237348 11.67041342 8.24831578 13.5 12.375 C14.02464844 13.550625 14.54929687 14.72625 15.08984375 15.9375 C15.83427734 17.61972656 15.83427734 17.61972656 16.59375 19.3359375 C17.05458984 20.37282715 17.51542969 21.4097168 17.99023438 22.47802734 C19 25 19 25 19 27 C16.36 27 13.72 27 11 27 C10.34 25.68 9.68 24.36 9 23 C7.37399059 23.0870005 5.74910322 23.1951781 4.125 23.3125 C3.22007812 23.37050781 2.31515625 23.42851563 1.3828125 23.48828125 C-1.36221601 23.7882039 -1.36221601 23.7882039 -3 27 C-4.9453125 27.29296875 -4.9453125 27.29296875 -7.125 27.1875 C-8.40375 27.125625 -9.6825 27.06375 -11 27 C-9.00667932 20.60703339 -6.58525386 14.52953606 -3.8125 8.4375 C-3.44447266 7.61958984 -3.07644531 6.80167969 -2.69726562 5.95898438 C-1.80204987 3.97090782 -0.9015835 1.98519692 0 0 Z " fill="#131F53" transform="translate(354,39)"/>
<path d="M0 0 C2.64 0 5.28 0 8 0 C10.97974749 5.72216996 13.73972427 11.52273639 16.3125 17.4375 C16.82425781 18.61183594 17.33601563 19.78617188 17.86328125 20.99609375 C19 24 19 24 19 27 C17.72125 27.061875 16.4425 27.12375 15.125 27.1875 C14.04605469 27.23970703 14.04605469 27.23970703 12.9453125 27.29296875 C12.30335938 27.19628906 11.66140625 27.09960938 11 27 C10.34 26.01 9.68 25.02 9 24 C6.57478506 23.41810734 6.57478506 23.41810734 3.875 23.3125 C2.96492188 23.24675781 2.05484375 23.18101563 1.1171875 23.11328125 C0.41851562 23.07589844 -0.28015625 23.03851563 -1 23 C-1.33 24.32 -1.66 25.64 -2 27 C-4.64 27 -7.28 27 -10 27 C-9.43343202 20.88106577 -6.89348871 15.67636193 -4.4375 10.125 C-4.01275391 9.15046875 -3.58800781 8.1759375 -3.15039062 7.171875 C-2.10624496 4.77855235 -1.05597786 2.38811986 0 0 Z " fill="#152053" transform="translate(289,39)"/>
<path d="M0 0 C2.64 0 5.28 0 8 0 C9.8392812 4.12237348 11.67041342 8.24831578 13.5 12.375 C14.02464844 13.550625 14.54929687 14.72625 15.08984375 15.9375 C15.83427734 17.61972656 15.83427734 17.61972656 16.59375 19.3359375 C17.05458984 20.37282715 17.51542969 21.4097168 17.99023438 22.47802734 C19 25 19 25 19 27 C17.72125 27.061875 16.4425 27.12375 15.125 27.1875 C14.04605469 27.23970703 14.04605469 27.23970703 12.9453125 27.29296875 C12.30335938 27.19628906 11.66140625 27.09960938 11 27 C10.34 26.01 9.68 25.02 9 24 C6.63715136 23.52209482 6.63715136 23.52209482 4 23.625 C3.113125 23.61726563 2.22625 23.60953125 1.3125 23.6015625 C0.549375 23.73304687 -0.21375 23.86453125 -1 24 C-1.66 24.99 -2.32 25.98 -3 27 C-4.9453125 27.29296875 -4.9453125 27.29296875 -7.125 27.1875 C-8.40375 27.125625 -9.6825 27.06375 -11 27 C-9.00667932 20.60703339 -6.58525386 14.52953606 -3.8125 8.4375 C-3.44447266 7.61958984 -3.07644531 6.80167969 -2.69726562 5.95898438 C-1.80204987 3.97090782 -0.9015835 1.98519692 0 0 Z " fill="#0B174D" transform="translate(406,39)"/>
<path d="M0 0 C2.05078125 0.03255208 4.1015625 0.06510417 6.15234375 0.09765625 C7.8309677 3.84241628 9.49313545 7.59425801 11.15234375 11.34765625 C11.62929688 12.41113281 12.10625 13.47460938 12.59765625 14.5703125 C13.04882812 15.59511719 13.5 16.61992188 13.96484375 17.67578125 C14.38378906 18.6184082 14.80273438 19.56103516 15.234375 20.53222656 C16.15234375 23.09765625 16.15234375 23.09765625 16.15234375 27.09765625 C13.51234375 27.09765625 10.87234375 27.09765625 8.15234375 27.09765625 C7.82234375 25.77765625 7.49234375 24.45765625 7.15234375 23.09765625 C5.52633434 23.18465675 3.90144697 23.29283435 2.27734375 23.41015625 C1.37242187 23.46816406 0.4675 23.52617188 -0.46484375 23.5859375 C-3.20987226 23.88586015 -3.20987226 23.88586015 -4.84765625 27.09765625 C-6.79296875 27.390625 -6.79296875 27.390625 -8.97265625 27.28515625 C-10.25140625 27.22328125 -11.53015625 27.16140625 -12.84765625 27.09765625 C-10.95070545 20.96046247 -8.66131276 15.03571349 -6.22265625 9.09765625 C-5.75267212 7.94825562 -5.75267212 7.94825562 -5.27319336 6.77563477 C-2.52199564 0.13329787 -2.52199564 0.13329787 0 0 Z " fill="#0B174D" transform="translate(585.84765625,38.90234375)"/>
<path d="M0 0 C2.73083902 -0.13548815 5.45491807 -0.23429855 8.1875 -0.3125 C8.95642578 -0.35439453 9.72535156 -0.39628906 10.51757812 -0.43945312 C14.80296997 -0.53141432 16.47521098 -0.40526901 19.984375 2.3046875 C22.53305692 5.71280868 23.0745936 7.74816458 23 12 C20.06329114 17.46835443 20.06329114 17.46835443 17 19 C15.45976004 19.06950541 13.91665012 19.08452357 12.375 19.0625 C11.14910156 19.04896484 11.14910156 19.04896484 9.8984375 19.03515625 C9.27195312 19.02355469 8.64546875 19.01195313 8 19 C8.020625 20.134375 8.04125 21.26875 8.0625 22.4375 C8 26 8 26 7 27 C4 27.125 4 27.125 1 27 C0 26 0 26 -0.11352539 23.49975586 C-0.10828857 22.41573486 -0.10305176 21.33171387 -0.09765625 20.21484375 C-0.09443359 19.04501953 -0.09121094 17.87519531 -0.08789062 16.66992188 C-0.07951172 15.43822266 -0.07113281 14.20652344 -0.0625 12.9375 C-0.05798828 11.70193359 -0.05347656 10.46636719 -0.04882812 9.19335938 C-0.03699608 6.12885883 -0.02051173 3.06445279 0 0 Z " fill="#121D50" transform="translate(468,39)"/>
<path d="M0 0 C2.31 0 4.62 0 7 0 C18 21.31958763 18 21.31958763 18 27 C16.72125 27.061875 15.4425 27.12375 14.125 27.1875 C13.04605469 27.23970703 13.04605469 27.23970703 11.9453125 27.29296875 C11.30335938 27.19628906 10.66140625 27.09960938 10 27 C9.34 26.01 8.68 25.02 8 24 C5.86746355 23.52312697 5.86746355 23.52312697 3.5 23.625 C2.7059375 23.61726563 1.911875 23.60953125 1.09375 23.6015625 C0.05734375 23.79878906 0.05734375 23.79878906 -1 24 C-1.66 24.99 -2.32 25.98 -3 27 C-4.9453125 27.29296875 -4.9453125 27.29296875 -7.125 27.1875 C-8.40375 27.125625 -9.6825 27.06375 -11 27 C-9.00667932 20.60703339 -6.58525386 14.52953606 -3.8125 8.4375 C-3.44447266 7.61958984 -3.07644531 6.80167969 -2.69726562 5.95898438 C-1.80204987 3.97090782 -0.9015835 1.98519692 0 0 Z " fill="#FBB010" transform="translate(396,102)"/>
<path d="M0 0 C2.31 0 4.62 0 7 0 C18 21.31958763 18 21.31958763 18 27 C16.72125 27.061875 15.4425 27.12375 14.125 27.1875 C13.04605469 27.23970703 13.04605469 27.23970703 11.9453125 27.29296875 C11.30335938 27.19628906 10.66140625 27.09960938 10 27 C9.34 26.01 8.68 25.02 8 24 C5.86746355 23.52312697 5.86746355 23.52312697 3.5 23.625 C2.7059375 23.61726563 1.911875 23.60953125 1.09375 23.6015625 C0.05734375 23.79878906 0.05734375 23.79878906 -1 24 C-1.66 24.99 -2.32 25.98 -3 27 C-4.9453125 27.29296875 -4.9453125 27.29296875 -7.125 27.1875 C-8.40375 27.125625 -9.6825 27.06375 -11 27 C-9.00667932 20.60703339 -6.58525386 14.52953606 -3.8125 8.4375 C-3.44447266 7.61958984 -3.07644531 6.80167969 -2.69726562 5.95898438 C-1.80204987 3.97090782 -0.9015835 1.98519692 0 0 Z " fill="#FBB010" transform="translate(456,102)"/>
<path d="M0 0 C2.31 0 4.62 0 7 0 C13.73087186 13.29158123 13.73087186 13.29158123 16.4375 19.125 C16.89962891 20.11886719 16.89962891 20.11886719 17.37109375 21.1328125 C18 23 18 23 18 27 C15.36 27 12.72 27 10 27 C9.67 25.68 9.34 24.36 9 23 C5.7 23 2.4 23 -1 23 C-1.66 24.32 -2.32 25.64 -3 27 C-5.64 27 -8.28 27 -11 27 C-9.22018665 21.19115863 -6.78827933 15.69062546 -4.375 10.125 C-3.95476562 9.15046875 -3.53453125 8.1759375 -3.1015625 7.171875 C-2.06989974 4.78029314 -1.03598716 2.38971101 0 0 Z " fill="#111D51" transform="translate(361,102)"/>
<path d="M0 0 C2.31 0 4.62 0 7 0 C18 21.44382022 18 21.44382022 18 27 C15.36 27 12.72 27 10 27 C9.67 25.68 9.34 24.36 9 23 C5.7 23 2.4 23 -1 23 C-1.66 24.32 -2.32 25.64 -3 27 C-5.31 27 -7.62 27 -10 27 C-9.43343202 20.88106577 -6.89348871 15.67636193 -4.4375 10.125 C-4.01275391 9.15046875 -3.58800781 8.1759375 -3.15039062 7.171875 C-2.10624496 4.77855235 -1.05597786 2.38811986 0 0 Z " fill="#111C51" transform="translate(287,102)"/>
<path d="M0 0 C3.125 1.5 3.125 1.5 5 3 C4.6875 4.875 4.6875 4.875 4 7 C1 9 1 9 -1.26171875 8.7578125 C-2.06222656 8.54898438 -2.86273437 8.34015625 -3.6875 8.125 C-4.49574219 7.92132813 -5.30398438 7.71765625 -6.13671875 7.5078125 C-6.75160156 7.34023437 -7.36648438 7.17265625 -8 7 C-7.18087579 9.22274585 -7.18087579 9.22274585 -4.8203125 9.74609375 C-3.02895065 10.20561701 -1.23728507 10.66395789 0.5546875 11.12109375 C3.16935835 12.06087161 4.36650169 12.76913823 6 15 C6.77669903 21.99029126 6.77669903 21.99029126 4.125 25.4375 C-0.10418877 28.54719762 -3.86479955 28.64399094 -9 28 C-11.61918417 26.90946695 -13.63616293 25.60942098 -16 24 C-15.1875 21.5625 -15.1875 21.5625 -14 19 C-13.01 18.67 -12.02 18.34 -11 18 C-10.01 18.66 -9.02 19.32 -8 20 C-4.87478167 20.16699232 -4.87478167 20.16699232 -2 20 C-1.67 19.34 -1.34 18.68 -1 18 C-1.66386719 17.91363281 -2.32773437 17.82726562 -3.01171875 17.73828125 C-7.45258296 17.03163278 -10.42440734 16.41442672 -14.125 13.75 C-16 11 -16 11 -16.6875 8 C-15.91727561 4.63902085 -14.76949111 2.96773692 -11.98046875 0.9140625 C-8.10340732 -0.87535047 -4.14760964 -0.66251335 0 0 Z " fill="#FAAE0C" transform="translate(599,102)"/>
<path d="M0 0 C3.42440103 1.87372887 6.51187247 3.95895525 9 7 C9 7.66 9 8.32 9 9 C6.69 9.66 4.38 10.32 2 11 C1.62875 10.505 1.2575 10.01 0.875 9.5 C-0.99636794 7.73485983 -0.99636794 7.73485983 -4 7.625 C-6.92953722 7.7859527 -6.92953722 7.7859527 -8.875 9.125 C-10.51151479 11.85252465 -10.32502803 13.87973093 -10 17 C-9.34 17.99 -8.68 18.98 -8 20 C-3.20188123 20.59083965 -3.20188123 20.59083965 0.9375 18.5 C1.288125 18.005 1.63875 17.51 2 17 C4.31 17.66 6.62 18.32 9 19 C8.08315806 22.30063098 7.06877946 23.93474769 4.5625 26.3125 C-0.38107946 28.65419553 -4.62511941 29.04381739 -10 28 C-14.30170805 25.62717171 -17.11945321 22.53594851 -19 18 C-19.54996231 13.20747127 -19.55658872 10.25730668 -16.875 6.1875 C-12.44618605 0.7538291 -6.8580599 -1.25936429 0 0 Z " fill="#101A4E" transform="translate(268,38)"/>
<path d="M0 0 C2.31 0 4.62 0 7 0 C7.33 2.64 7.66 5.28 8 8 C8.61875 7.13375 8.61875 7.13375 9.25 6.25 C13.91072697 0.25763675 13.91072697 0.25763675 17.24609375 -0.53125 C19.4375 -0.5 19.4375 -0.5 23 0 C21.50923566 3.2826932 19.61379679 5.93077441 17.375 8.75 C16.74335938 9.54921875 16.11171875 10.3484375 15.4609375 11.171875 C14.97882813 11.77515625 14.49671875 12.3784375 14 13 C15.46976464 16.45007911 17.40918519 18.56493084 20.125 21.125 C21.45394723 22.37827763 22.75547173 23.66285567 24 25 C24 25.66 24 26.32 24 27 C16.3943662 27.91267606 16.3943662 27.91267606 13.06640625 25.734375 C11.4375 24.125 11.4375 24.125 9 21 C9 20.34 9 19.68 9 19 C8.34 19 7.68 19 7 19 C7 21.64 7 24.28 7 27 C4.69 27 2.38 27 0 27 C0 18.09 0 9.18 0 0 Z " fill="#061249" transform="translate(251,102)"/>
<path d="M0 0 C3.23939656 1.73539102 5.42321134 3.42321134 8 6 C8 6.99 8 7.98 8 9 C4.625 9.625 4.625 9.625 1 10 C0.34 9.34 -0.32 8.68 -1 8 C-4.45786015 7.49992206 -4.45786015 7.49992206 -8 8 C-10.16666667 9.5 -10.16666667 9.5 -11 12 C-10.77962372 15.67293796 -10.63033454 17.36966546 -8 20 C-5.77871445 20.02308597 -5.77871445 20.02308597 -3.375 19.625 C-2.14910156 19.45871094 -2.14910156 19.45871094 -0.8984375 19.2890625 C-0.27195312 19.19367188 0.35453125 19.09828125 1 19 C1 18.34 1 17.68 1 17 C5.75 17.875 5.75 17.875 8 19 C7.05576649 22.77693404 6.06080636 23.9550033 2.875 26.3125 C-1.31139808 28.44486493 -4.33999931 28.59174612 -9 28 C-13.79678945 25.60160527 -16.63683712 22.81721665 -19 18 C-19.83393237 13.26020073 -19.47162763 9.94325526 -17.3125 5.625 C-12.2627591 -0.10713832 -7.44613514 -1.10798491 0 0 Z " fill="#FAAE0B" transform="translate(573,102)"/>
<path d="M0 0 C5.24934383 -0.52493438 5.24934383 -0.52493438 8 0 C12 4.6 12 4.6 12 8 C14.03863154 6.15552384 15.05636206 4.87244376 16.1875 2.3125 C18 0 18 0 19.96875 -0.3203125 C21.98198743 -0.31322364 23.99347934 -0.16446891 26 0 C24.69102452 3.57913102 23.07652197 6.48216182 20.9375 9.625 C17.98409553 14.39202421 17.26910597 18.29178313 17.10546875 23.84765625 C17 26 17 26 16 27 C13 27.125 13 27.125 10 27 C8.39059774 25.39059774 8.96001876 23.47614058 8.9375 21.25 C8.43874151 14.45441559 5.43649585 10.15306328 1.71484375 4.65234375 C0 2 0 2 0 0 Z " fill="#081349" transform="translate(371,39)"/>
<path d="M0 0 C2.64 0 5.28 0 8 0 C12 6.75 12 6.75 12 9 C12.66 9 13.32 9 14 9 C14.28875 8.071875 14.5775 7.14375 14.875 6.1875 C16 3 16 3 18 0 C19.9453125 -0.29296875 19.9453125 -0.29296875 22.125 -0.1875 C23.40375 -0.125625 24.6825 -0.06375 26 0 C24.63498381 3.66642029 22.97203048 6.91077061 20.9375 10.25 C20.41027344 11.12140625 19.88304687 11.9928125 19.33984375 12.890625 C18 15 18 15 17 16 C16.76636119 17.84891946 16.58696365 19.70488031 16.4375 21.5625 C16.35371094 22.57441406 16.26992188 23.58632812 16.18359375 24.62890625 C16.09271484 25.80259766 16.09271484 25.80259766 16 27 C13.69 27 11.38 27 9 27 C9.020625 26.35675781 9.04125 25.71351562 9.0625 25.05078125 C8.88183823 17.13553759 6.06874774 12.11634116 1.71484375 5.75 C0 3 0 3 0 0 Z " fill="#0A154A" transform="translate(329,102)"/>
<path d="M0 0 C6.93 0 13.86 0 21 0 C21 1.98 21 3.96 21 6 C20.67 6.33 20.34 6.66 20 7 C18.02 7 16.04 7 14 7 C14 13.6 14 20.2 14 27 C11.69 27 9.38 27 7 27 C6 26 6 26 5.88647461 24.14233398 C5.89432983 22.95619507 5.89432983 22.95619507 5.90234375 21.74609375 C5.90556641 20.89208984 5.90878906 20.03808594 5.91210938 19.15820312 C5.92048828 18.26037109 5.92886719 17.36253906 5.9375 16.4375 C5.94201172 15.53580078 5.94652344 14.63410156 5.95117188 13.70507812 C5.96299775 11.46998686 5.9794778 9.23502563 6 7 C4.02 7 2.04 7 0 7 C0 4.69 0 2.38 0 0 Z " fill="#162255" transform="translate(495,39)"/>
<path d="M0 0 C2.64 0 5.28 0 8 0 C8 6.6 8 13.2 8 20 C11.96 20 15.92 20 20 20 C20 22.31 20 24.62 20 27 C13.4 27 6.8 27 0 27 C0 18.09 0 9.18 0 0 Z " fill="#FBB114" transform="translate(476,102)"/>
<path d="M0 0 C9.9 0 19.8 0 30 0 C30 2.31 30 4.62 30 7 C27.69 7 25.38 7 23 7 C23 13.6 23 20.2 23 27 C20.36 27 17.72 27 15 27 C15 20.4 15 13.8 15 7 C12.69 7 10.38 7 8 7 C7.67 5.35 7.34 3.7 7 2 C7.63091553 2.00523682 8.26183105 2.01047363 8.91186523 2.01586914 C11.75373347 2.03657826 14.59558588 2.04964066 17.4375 2.0625 C18.43072266 2.07087891 19.42394531 2.07925781 20.44726562 2.08789062 C21.39150391 2.09111328 22.33574219 2.09433594 23.30859375 2.09765625 C24.18314209 2.10289307 25.05769043 2.10812988 25.95874023 2.11352539 C27.99440206 2.22784809 27.99440206 2.22784809 29 1 C19.43 1 9.86 1 0 1 C0 0.67 0 0.34 0 0 Z " fill="#FBB317" transform="translate(510,102)"/>
<path d="M0 0 C2 0 2 0 3.49462891 1.12915039 C7.02596854 4.76832948 8.40910595 7.37585751 8.5859375 12.49609375 C8.54644269 14.47741666 8.47543932 16.45833041 8.375 18.4375 C8.34792969 19.45521484 8.32085937 20.47292969 8.29296875 21.52148438 C8.22268507 24.01655513 8.12437201 26.50713847 8 29 C1.25 29.125 1.25 29.125 -1 28 C-1.02886338 23.52084672 -1.04675187 19.04171709 -1.0625 14.5625 C-1.07087891 13.28310547 -1.07925781 12.00371094 -1.08789062 10.68554688 C-1.09111328 9.47060547 -1.09433594 8.25566406 -1.09765625 7.00390625 C-1.10289307 5.87799072 -1.10812988 4.7520752 -1.11352539 3.59204102 C-1 1 -1 1 0 0 Z " fill="#FAAD04" transform="translate(123,86)"/>
<path d="M0 0 C0.23264031 4.22823768 0.37452126 8.45483337 0.5 12.6875 C0.56703125 13.88568359 0.6340625 15.08386719 0.703125 16.31835938 C0.89701419 25.01913663 0.89701419 25.01913663 -1.78125 27.94775391 C-6.60455247 31 -6.60455247 31 -9 31 C-9.23450978 27.33443177 -9.37511221 23.67080904 -9.5 20 C-9.56703125 18.97003906 -9.6340625 17.94007812 -9.703125 16.87890625 C-9.81816788 12.36347338 -9.87222859 9.24139551 -7.21875 5.46484375 C-1.82137346 0 -1.82137346 0 0 0 Z " fill="#FAAD05" transform="translate(153,82)"/>
<path d="M0 0 C0.66 0 1.32 0 2 0 C4.98081934 10.43286768 4.48997348 18.95223701 0 29 C-2.475 31.475 -2.475 31.475 -5 34 C-5 25.42 -5 16.84 -5 8 C-4.01 7.67 -3.02 7.34 -2 7 C-1.67 7.66 -1.34 8.32 -1 9 C-0.67 6.03 -0.34 3.06 0 0 Z " fill="#FAAC07" transform="translate(160,71)"/>
<path d="M0 0 C2.31 0 4.62 0 7 0 C7 8.91 7 17.82 7 27 C4.69 27 2.38 27 0 27 C0 18.09 0 9.18 0 0 Z " fill="#FAAC03" transform="translate(543,102)"/>
<path d="M0 0 C2.31 0 4.62 0 7 0 C7 8.91 7 17.82 7 27 C4.69 27 2.38 27 0 27 C0 18.09 0 9.18 0 0 Z " fill="#061149" transform="translate(522,39)"/>
<path d="M0 0 C0.33 0 0.66 0 1 0 C1 6.93 1 13.86 1 21 C-1.97 21.33 -4.94 21.66 -8 22 C-8 15.73 -8 9.46 -8 3 C-6.68 3.33 -5.36 3.66 -4 4 C-1.7914234 2.12491838 -1.7914234 2.12491838 0 0 Z " fill="#FAAD06" transform="translate(141,93)"/>
<path d="M0 0 C0 7.59 0 15.18 0 23 C-6.50761828 20.39695269 -6.50761828 20.39695269 -9 18 C-10.05275539 14.55406228 -9.87561344 11.47685104 -9 8 C-3.20866774 0 -3.20866774 0 0 0 Z " fill="#FAAC05" transform="translate(120,90)"/>
<path d="M0 0 C3.375 0.9375 3.375 0.9375 5.375 3.9375 C5.91248871 9.95737353 5.91248871 9.95737353 4.3125 12.875 C1.22006242 14.57085287 -1.18014741 14.36810657 -4.625 13.9375 C-7.25041413 11.73553976 -7.5695448 10.31776421 -8.0625 6.9375 C-7.625 3.9375 -7.625 3.9375 -6.0625 1.5 C-3.625 -0.0625 -3.625 -0.0625 0 0 Z M-1.625 5.9375 C-0.625 7.9375 -0.625 7.9375 -0.625 7.9375 Z " fill="#F5F5F8" transform="translate(448.625,45.0625)"/>
<path d="M0 0 C2.31 0 4.62 0 7 0 C7.02886537 4.31248609 7.04675255 8.62494762 7.0625 12.9375 C7.07087891 14.16919922 7.07925781 15.40089844 7.08789062 16.66992188 C7.09111328 17.83974609 7.09433594 19.00957031 7.09765625 20.21484375 C7.10289307 21.29886475 7.10812988 22.38288574 7.11352539 23.49975586 C7 26 7 26 6 27 C4.00041636 27.04080783 1.99954746 27.04254356 0 27 C0 23.7 0 20.4 0 17 C0.33 17 0.66 17 1 17 C1 19.64 1 22.28 1 25 C2.32 25 3.64 25 5 25 C5 17.08 5 9.16 5 1 C3.68 1 2.36 1 1 1 C1 3.97 1 6.94 1 10 C0.67 10 0.34 10 0 10 C0 6.7 0 3.4 0 0 Z " fill="#252851" transform="translate(331,39)"/>
<path d="M0 0 C2.62462244 -0.26697888 5.01065933 -0.34832984 7.6328125 -0.29296875 C8.76056595 -0.28660149 8.76056595 -0.28660149 9.91110229 -0.28010559 C12.31609685 -0.2632917 14.72025809 -0.22563624 17.125 -0.1875 C18.75389416 -0.17245659 20.38280144 -0.15876758 22.01171875 -0.14648438 C26.00813434 -0.11337954 30.00392582 -0.06158009 34 0 C32.25 4.875 32.25 4.875 30 6 C30.33 4.68 30.66 3.36 31 2 C20.77 2 10.54 2 0 2 C-0.33 2.99 -0.66 3.98 -1 5 C-1.33 4.34 -1.66 3.68 -2 3 C-1.34 2.01 -0.68 1.02 0 0 Z " fill="#161C4F" transform="translate(204,38)"/>
<path d="M0 0 C0.66 0.33 1.32 0.66 2 1 C2 1.66 2 2.32 2 3 C-8.56 3 -19.12 3 -30 3 C-30 2.34 -30 1.68 -30 1 C-29.12674072 1.00523682 -28.25348145 1.01047363 -27.35375977 1.01586914 C-24.12410727 1.03287751 -20.89447755 1.04543369 -17.66479492 1.05493164 C-16.26504772 1.0599708 -14.8653058 1.06680216 -13.46557617 1.07543945 C-11.45754223 1.0875232 -9.44947043 1.09269807 -7.44140625 1.09765625 C-6.23170166 1.10289307 -5.02199707 1.10812988 -3.77563477 1.11352539 C-1.09187983 1.31775285 -1.09187983 1.31775285 0 0 Z " fill="#020D46" transform="translate(238,126)"/>
<path d="M0 0 C0.33 0 0.66 0 1 0 C1 8.25 1 16.5 1 25 C2.65 25 4.3 25 6 25 C6 21.37 6 17.74 6 14 C6.99 14 7.98 14 9 14 C8.85966889 15.97956441 8.7125877 17.95865141 8.5625 19.9375 C8.48128906 21.03964844 8.40007813 22.14179687 8.31640625 23.27734375 C8 26 8 26 7 27 C4 27.125 4 27.125 1 27 C0 26 0 26 -0.11352539 23.49975586 C-0.10828857 22.41573486 -0.10305176 21.33171387 -0.09765625 20.21484375 C-0.09443359 19.04501953 -0.09121094 17.87519531 -0.08789062 16.66992188 C-0.07951172 15.43822266 -0.07113281 14.20652344 -0.0625 12.9375 C-0.05798828 11.70193359 -0.05347656 10.46636719 -0.04882812 9.19335938 C-0.03699608 6.12885883 -0.02051173 3.06445279 0 0 Z " fill="#353D67" transform="translate(537,39)"/>
<path d="M0 0 C1.98 0 3.96 0 6 0 C6 3.3 6 6.6 6 10 C5.67 10 5.34 10 5 10 C5 7.03 5 4.06 5 1 C3.68 1 2.36 1 1 1 C1 8.92 1 16.84 1 25 C2.32 25 3.64 25 5 25 C5 22.36 5 19.72 5 17 C5.33 17 5.66 17 6 17 C6.33 20.3 6.66 23.6 7 27 C4.69 27 2.38 27 0 27 C0 18.09 0 9.18 0 0 Z " fill="#0C0D3E" transform="translate(314,39)"/>
<path d="M0 0 C1.98 0 3.96 0 6 0 C6 8.91 6 17.82 6 27 C3.69 27 1.38 27 -1 27 C-0.67 22.71 -0.34 18.42 0 14 C0.33 14 0.66 14 1 14 C1 17.63 1 21.26 1 25 C2.32 25 3.64 25 5 25 C5 17.08 5 9.16 5 1 C3.35 1 1.7 1 0 1 C0 0.67 0 0.34 0 0 Z " fill="#0D0E3D" transform="translate(561,39)"/>
<path d="M0 0 C0.33 0 0.66 0 1 0 C1 8.58 1 17.16 1 26 C0.34 26 -0.32 26 -1 26 C-1.22515501 22.04243356 -1.42727348 18.08402412 -1.625 14.125 C-1.68945312 12.99707031 -1.75390625 11.86914062 -1.8203125 10.70703125 C-1.871875 9.63066406 -1.9234375 8.55429688 -1.9765625 7.4453125 C-2.02893066 6.45031738 -2.08129883 5.45532227 -2.13525391 4.43017578 C-2 2 -2 2 0 0 Z " fill="#FBB11D" transform="translate(152,82)"/>
<path d="M0 0 C0.33 0 0.66 0 1 0 C1 5.94 1 11.88 1 18 C2.32 18 3.64 18 5 18 C5 12.06 5 6.12 5 0 C5.33 0 5.66 0 6 0 C6.33 6.6 6.66 13.2 7 20 C4.69 20 2.38 20 0 20 C0 13.4 0 6.8 0 0 Z " fill="#0E1040" transform="translate(502,46)"/>
<path d="M0 0 C0.66 0 1.32 0 2 0 C3.58713619 5.55497665 4.3920214 10.2176844 4 16 C3.34 16.99 2.68 17.98 2 19 C2 16.03 2 13.06 2 10 C1.34 10 0.68 10 0 10 C0 6.7 0 3.4 0 0 Z " fill="#FBB323" transform="translate(160,71)"/>
<path d="M0 0 C1.98 0 3.96 0 6 0 C6.66 1.32 7.32 2.64 8 4 C6 6 6 6 2.875 6.125 C1.451875 6.063125 1.451875 6.063125 0 6 C0 4.02 0 2.04 0 0 Z " fill="#E9EAEF" transform="translate(314,109)"/>
<path d="M0 0 C2.31 0 4.62 0 7 0 C6.67 0.66 6.34 1.32 6 2 C4.68 2 3.36 2 2 2 C2 5.96 2 9.92 2 14 C0.68 14.33 -0.64 14.66 -2 15 C-1.67 14.34 -1.34 13.68 -1 13 C-0.77049681 10.795636 -0.58924067 8.58607827 -0.4375 6.375 C-0.35371094 5.18648438 -0.26992188 3.99796875 -0.18359375 2.7734375 C-0.12300781 1.85820313 -0.06242187 0.94296875 0 0 Z " fill="#FBB21B" transform="translate(435,102)"/>
<path d="M0 0 C0.33 0 0.66 0 1 0 C1 2.97 1 5.94 1 9 C2.65 9 4.3 9 6 9 C6 6.03 6 3.06 6 0 C6.66 0 7.32 0 8 0 C8.02688151 1.64574566 8.04634123 3.29161413 8.0625 4.9375 C8.07410156 5.85402344 8.08570313 6.77054688 8.09765625 7.71484375 C8 10 8 10 7 11 C4 11.125 4 11.125 1 11 C0 10 0 10 -0.09765625 7.71484375 C-0.08605469 6.79832031 -0.07445312 5.88179687 -0.0625 4.9375 C-0.05347656 4.01839844 -0.04445313 3.09929688 -0.03515625 2.15234375 C-0.02355469 1.44207031 -0.01195312 0.73179688 0 0 Z " fill="#383E66" transform="translate(380,55)"/>
<path d="M0 0 C1.98 0 3.96 0 6 0 C6.33 1.65 6.66 3.3 7 5 C4.69 5 2.38 5 0 5 C0 3.35 0 1.7 0 0 Z " fill="#FCFCFC" transform="translate(476,46)"/>
<path d="M0 0 C2.31 0 4.62 0 7 0 C7.22786458 2.01822917 7.45572917 4.03645833 7.68359375 6.0546875 C7.91292961 8.07404316 7.91292961 8.07404316 9 10 C7.68 10 6.36 10 5 10 C5 7.36 5 4.72 5 2 C3.35 1.67 1.7 1.34 0 1 C0 0.67 0 0.34 0 0 Z " fill="#192054" transform="translate(251,102)"/>
<path d="M0 0 C8.36628849 7.05024311 8.36628849 7.05024311 11 10 C11 10.66 11 11.32 11 12 C7.60740986 10.86913662 6.66962898 9.79067537 4.375 7.125 C3.76398438 6.42632812 3.15296875 5.72765625 2.5234375 5.0078125 C1 3 1 3 0 0 Z " fill="#151945" transform="translate(264,117)"/>
<path d="M0 0 C0.66 0 1.32 0 2 0 C2.33 1.32 2.66 2.64 3 4 C0.36 4 -2.28 4 -5 4 C-5 3.01 -5 2.02 -5 1 C-3.35 1.33 -1.7 1.66 0 2 C0 1.34 0 0.68 0 0 Z " fill="#33375D" transform="translate(370,62)"/>
<path d="M0 0 C2.64 0 5.28 0 8 0 C8.33 0.99 8.66 1.98 9 3 C6.36 3 3.72 3 1 3 C0.67 2.01 0.34 1.02 0 0 Z " fill="#30345B" transform="translate(416,63)"/>
<path d="M0 0 C0.66 0.33 1.32 0.66 2 1 C2.625 3.5625 2.625 3.5625 3 6 C1.35 6 -0.3 6 -2 6 C-1.34 4.02 -0.68 2.04 0 0 Z " fill="#C4C8D5" transform="translate(587,50)"/>
<path d="M0 0 C0.66 0 1.32 0 2 0 C2.33 1.98 2.66 3.96 3 6 C1.68 6 0.36 6 -1 6 C-0.67 4.02 -0.34 2.04 0 0 Z " fill="#CED1DC" transform="translate(409,50)"/>
<path d="M0 0 C2.31 0.33 4.62 0.66 7 1 C7 1.66 7 2.32 7 3 C4.36 3 1.72 3 -1 3 C-0.67 2.01 -0.34 1.02 0 0 Z " fill="#30355B" transform="translate(574,63)"/>
</svg>
